# xmcd
#
# Track frame offsets: 
#        150
#        14426
#        27437
#        51256
#        65979
#        81374
#        103305
#        116858
#        127269
#        142315
#        156031
#        171489
#        188232
#        201152
#
# Disc length: 2862 seconds
#
# Revision: 2
# Processed by: cddbd v1.5.2PL0 Copyright (c) Steve Scherf et al.
# Submitted via: ExactAudioCopy v1.0b1
#
DISCID=e40b2c0e
DTITLE=David Allan Coe - The Essential
DYEAR=2004
DGENRE=Country
TTITLE0=The Ride
TTITLE1=Would You Lay With Me (In A Field Of Stone)
TTITLE2=You Never Even Called Me By My Name
TTITLE3=Willie, Waylon And Me
TTITLE4=Longhaired Redneck
TTITLE5=If That Ain't Country
TTITLE6=Take This Job And Shove It
TTITLE7=(If I Could Climb) The Walls Of The Bottle
TTITLE8=Jack Daniel's, If You Please
TTITLE9=Tennessee Whiskey
TTITLE10=Now I Lay Me Down To Cheat
TTITLE11=Mona Lisa Lost Her Smile
TTITLE12=Don't Cry Darlin' (Recitation by George Jones)
TTITLE13=Need A Little Time Off For Bad Behavior
EXTD=
EXTT0=
EXTT1=
EXTT2=
EXTT3=
EXTT4=
EXTT5=
EXTT6=
EXTT7=
EXTT8=
EXTT9=
EXTT10=
EXTT11=
EXTT12=
EXTT13=
PLAYORDER=
